<?xml version="1.0" encoding="UTF-8" standalone="no"?>
<!-- Created with Inkscape (http://www.inkscape.org/) -->

<svg
   xmlns:dc="http://purl.org/dc/elements/1.1/"
   xmlns:cc="http://creativecommons.org/ns#"
   xmlns:rdf="http://www.w3.org/1999/02/22-rdf-syntax-ns#"
   xmlns:svg="http://www.w3.org/2000/svg"
   xmlns="http://www.w3.org/2000/svg"
   xmlns:sodipodi="http://sodipodi.sourceforge.net/DTD/sodipodi-0.dtd"
   xmlns:inkscape="http://www.inkscape.org/namespaces/inkscape"
   width="79.163834mm"
   height="72.06855mm"
   viewBox="0 0 79.163834 72.06855"
   version="1.1"
   id="svg1095"
   sodipodi:docname="happy.svg"
   inkscape:version="0.92.3 (2405546, 2018-03-11)">
  <defs
     id="defs1089" />
  <sodipodi:namedview
     id="base"
     pagecolor="#ffffff"
     bordercolor="#666666"
     borderopacity="1.0"
     inkscape:pageopacity="0.0"
     inkscape:pageshadow="2"
     inkscape:zoom="1.04"
     inkscape:cx="67.522847"
     inkscape:cy="167.0587"
     inkscape:document-units="mm"
     inkscape:current-layer="layer1"
     showgrid="false"
     inkscape:window-width="1366"
     inkscape:window-height="676"
     inkscape:window-x="0"
     inkscape:window-y="27"
     inkscape:window-maximized="1"
     width="100mm"
     fit-margin-top="0"
     fit-margin-left="0"
     fit-margin-right="0"
     fit-margin-bottom="0" />
  <metadata
     id="metadata1092">
    <rdf:RDF>
      <cc:Work
         rdf:about="">
        <dc:format>image/svg+xml</dc:format>
        <dc:type
           rdf:resource="http://purl.org/dc/dcmitype/StillImage" />
        <dc:title></dc:title>
      </cc:Work>
    </rdf:RDF>
  </metadata>
  <g
     inkscape:groupmode="layer"
     id="layer2"
     inkscape:label="teeth"
     sodipodi:insensitive="true">
    <path
       style="fill:#ffffff;stroke:#ffffff;stroke-width:0.26458332px;stroke-linecap:butt;stroke-linejoin:miter;stroke-opacity:1"
       d="m 18.789134,48.58872 c 0,0 28.602098,9.559983 43.478269,-1.278371 L 57.57629,47.24638 55.89321,48.8186 c 0,0 -1.349859,-2.145115 -4.33882,0.06032 0,0 -2.190706,-2.192223 -5.18654,0.25224 0,0 -2.774543,-2.838126 -5.76262,-0.12665 0,0 -2.244074,-3.706013 -6.23041,-0.006 0,0 -2.234155,-3.68262 -5.917496,0.18415 0,0 -4.283676,-2.80885 -9.66819,-0.59394 z"
       id="path1696"
       inkscape:connector-curvature="0" />
    <path
       style="fill:#ffffff;stroke:none;stroke-width:0.26458332px;stroke-linecap:butt;stroke-linejoin:miter;stroke-opacity:1"
       d="m 63.035899,57.721298 c -14.02378,23.064572 -34.512163,13.165039 -44.809646,4.323689 -4.422756,-3.797348 -5.950189,-8.499528 -5.950189,-8.499528 0,0 -0.924986,-6.218881 27.928706,9.877481 l 1.77416,2.36184 c 0,0 9.753185,0.133209 13.544627,-2.81569 l 0.758288,-1.17956 -0.168508,-2.106356 1.775533,-1.076364 0.09737,-1.264157 1.303604,-0.434535 1.979547,0.144845 z"
       id="path1701"
       inkscape:connector-curvature="0"
       sodipodi:nodetypes="csc" />
  </g>
  <g
     inkscape:groupmode="layer"
     id="layer3"
     inkscape:label="tongue"
     sodipodi:insensitive="true">
    <path
       style="fill:#ff0000;stroke:none;stroke-width:0.26458332px;stroke-linecap:butt;stroke-linejoin:miter;stroke-opacity:1"
       d="m 21.458517,59.796028 c 0,0 3.885193,-4.147666 10.625313,-1.536348 0,0 3.973156,-2.879376 12.922552,0.363159 0,0 7.311025,1.481036 -4.537292,4.761261 0,0 -0.358085,1.599162 3.03384,2.3379 0,0 -9.305966,1.245107 -20.330272,-3.121383 z"
       id="path1699"
       inkscape:connector-curvature="0" />
  </g>
  <g
     inkscape:label="Layer 1"
     inkscape:groupmode="layer"
     id="layer1"
     transform="translate(-67.00735,-113.55553)"
     sodipodi:insensitive="true">
    <path
       inkscape:connector-curvature="0"
       id="path76"
       style="fill:#050301;fill-opacity:1;fill-rule:nonzero;stroke:none;stroke-width:0.03527778"
       d="m 101.58713,142.79179 c 0,2.79893 -2.269064,5.068 -5.068001,5.068 -2.79894,0 -5.068006,-2.26907 -5.068006,-5.068 0,-2.79894 2.269066,-5.06801 5.068006,-5.06801 2.798937,0 5.068001,2.26907 5.068001,5.06801" />
    <path
       inkscape:connector-curvature="0"
       id="path78"
       style="fill:#ffffff;fill-opacity:1;fill-rule:nonzero;stroke:none;stroke-width:0.03527778"
       d="m 98.335933,140.11456 c 0,1.0033 -0.813504,1.8168 -1.816804,1.8168 -1.0033,0 -1.816807,-0.8135 -1.816807,-1.8168 0,-1.0033 0.813507,-1.81681 1.816807,-1.81681 1.0033,0 1.816804,0.81351 1.816804,1.81681" />
    <path
       inkscape:connector-curvature="0"
       id="path80"
       style="fill:#ffffff;fill-opacity:1;fill-rule:nonzero;stroke:none;stroke-width:0.03527778"
       d="m 97.362621,146.21726 c 0,0.46566 -0.377825,0.84349 -0.843492,0.84349 -0.466021,0 -0.843492,-0.37783 -0.843492,-0.84349 0,-0.46602 0.377471,-0.84349 0.843492,-0.84349 0.465667,0 0.843492,0.37747 0.843492,0.84349" />
    <path
       inkscape:connector-curvature="0"
       id="path82"
       style="fill:#050301;fill-opacity:1;fill-rule:nonzero;stroke:none;stroke-width:0.03527778"
       d="m 125.65469,142.79179 c 0,2.79893 -1.9946,5.068 -4.45452,5.068 -2.45992,0 -4.45417,-2.26907 -4.45417,-5.068 0,-2.79894 1.99425,-5.06801 4.45417,-5.06801 2.45992,0 4.45452,2.26907 4.45452,5.06801" />
    <path
       inkscape:connector-curvature="0"
       id="path84"
       style="fill:#ffffff;fill-opacity:1;fill-rule:nonzero;stroke:none;stroke-width:0.03527778"
       d="m 122.79719,140.11456 c 0,1.0033 -0.71508,1.8168 -1.59702,1.8168 -0.88195,0 -1.59667,-0.8135 -1.59667,-1.8168 0,-1.0033 0.71472,-1.81681 1.59667,-1.81681 0.88194,0 1.59702,0.81351 1.59702,1.81681" />
    <path
       inkscape:connector-curvature="0"
       id="path86"
       style="fill:#ffffff;fill-opacity:1;fill-rule:nonzero;stroke:none;stroke-width:0.03527778"
       d="m 121.94171,146.21726 c 0,0.46566 -0.33197,0.84349 -0.74154,0.84349 -0.40958,0 -0.74119,-0.37783 -0.74119,-0.84349 0,-0.46602 0.33161,-0.84349 0.74119,-0.84349 0.40957,0 0.74154,0.37747 0.74154,0.84349" />
    <path
       inkscape:connector-curvature="0"
       id="path88"
       style="fill:#050301;fill-opacity:1;fill-rule:nonzero;stroke:none;stroke-width:0.03527778"
       d="m 117.66181,120.1551 0.76623,2.2987 c 0,0 3.57082,-6.14716 5.68113,-6.00569 1.36631,0.0921 2.79965,0.55633 3.64138,1.10172 0.1083,0.19297 0.21025,0.38347 0.30409,0.56762 0.0635,0.12453 0.28293,0.0363 0.22931,-0.0967 -0.0198,-0.0494 -0.0406,-0.0995 -0.061,-0.14922 0.17145,0.12276 0.26917,0.19967 0.26917,0.19967 0,0 -0.4371,-1.10737 -1.25589,-2.16888 -0.86043,-1.35961 -2.08598,-2.44122 -3.83858,-1.97273 -0.39652,0.10583 -0.75988,0.29139 -1.0989,0.52422 -1.4217,0.74225 -2.75802,2.29024 -3.83399,4.04213 -0.35948,0.44344 -0.71297,0.89147 -1.0541,1.35008 -0.12242,0.1644 0.0861,0.36019 0.25118,0.30904 z m -1.78047,32.10171 c 0.4639,0.47096 0.97084,0.8823 1.51059,1.23896 1.60937,1.37583 3.55177,2.35514 5.41161,2.92559 2.73403,0.8389 5.76686,0.93274 8.43139,-0.22684 0.0787,-0.0342 0.049,-0.16263 -0.0349,-0.14393 -2.76719,0.60713 -5.53649,0.7119 -8.27652,-0.12383 -0.90629,-0.27658 -1.74836,-0.641 -2.546,-1.07915 3.14396,0.89253 6.71971,0.51612 9.5303,-0.72249 0.049,0.0526 0.12065,0.0783 0.20955,0.048 2.4585,-0.83467 4.83905,-2.46838 6.38845,-4.82988 1.72861,-2.63454 1.97908,-5.95771 1.28587,-9.07097 -0.39158,-3.33058 -1.87889,-9.23396 -7.43126,-12.11016 -5.54708,-2.87408 -9.71444,0.24236 -11.85404,2.50014 -1.82527,1.2633 -3.3588,3.05505 -4.33211,5.28002 -2.14771,4.90785 -2.12831,12.42237 1.70709,16.31456 z m -2.00625,-13.37486 c 1.30457,-5.56648 5.66173,-9.36766 10.6994,-9.62695 4.91737,-0.25294 9.43116,3.14925 11.66212,8.04298 1.4598,3.20252 2.05141,7.29156 0.48049,10.58298 -1.40794,2.94957 -4.04213,4.66301 -6.72289,5.7852 -0.0797,0.0339 -0.12665,0.0995 -0.14675,0.17321 -3.80119,0.99131 -8.17669,1.29717 -11.74256,-0.80045 -4.42984,-2.60491 -5.42432,-9.06074 -4.22981,-14.15697 z m 32.29328,7.59319 c -0.16934,-1.05198 -0.55422,-2.21721 -1.47426,-2.85362 -0.73343,-0.5073 -1.68945,-0.5394 -2.40842,0.004 -0.12135,0.0914 -0.0201,0.27587 0.12065,0.20638 0.43745,-0.21555 0.82656,-0.23037 1.17299,-0.1143 -0.004,0.0116 -0.008,0.0229 -0.0106,0.036 -0.53269,2.76895 -1.05904,5.54778 -2.41864,8.05321 -1.2827,2.36396 -3.32529,4.1222 -5.64304,5.43454 -2.37102,1.34196 -5.02073,2.31069 -7.65668,2.98591 -1.01777,0.2607 -2.05423,0.46179 -3.10057,0.55845 -0.0526,-0.0173 -0.11077,-0.0148 -0.16616,0.0162 -0.37958,0.0303 -0.76058,0.0476 -1.14229,0.0473 -1.59597,-8e-4 -3.19758,-0.32209 -4.7692,-0.57785 -2.84763,-0.46391 -5.69631,-0.9966 -8.58626,-1.10243 -3.13655,-0.11501 -6.26816,0.0949 -9.38072,0.47483 -2.895949,0.35384 -5.764738,0.87983 -8.651871,1.28976 -2.862792,0.40711 -5.920317,0.57926 -8.639528,-0.58243 -2.86209,-1.22342 -4.880332,-3.79376 -6.570843,-6.308 -1.864783,-2.77248 -3.57505,-5.78238 -4.748389,-8.91893 0.84702,-0.0699 1.693686,0.15487 2.382309,0.76235 0.157691,0.139 0.446616,-0.0455 0.309738,-0.23918 -0.95003,-1.34338 -2.85503,-1.50036 -4.26473,-0.85266 -1.952978,0.89605 -2.744258,3.07727 -3.50908,4.92371 -0.03492,0.0836 0.108655,0.14429 0.147461,0.0621 0.705908,-1.50847 1.610078,-3.11855 3.065286,-4.02096 0.49918,-0.31009 1.050219,-0.51999 1.607961,-0.60501 0,0.003 -0.0014,0.006 -0.0014,0.01 0.181327,3.55459 1.048455,7.17691 2.034116,10.58757 0.454378,1.57338 0.972609,3.13019 1.556103,4.66231 0.606425,1.7339 1.308453,3.38878 2.115961,4.814 0.06562,0.13053 0.127706,0.26176 0.194733,0.39159 3.046236,5.91114 7.38117,11.10332 12.920839,14.82337 5.279318,3.54506 11.595454,5.5827 17.986024,5.11421 6.22758,-0.45684 12.31018,-3.07304 16.89629,-7.31872 2.91465,-2.6984 4.96711,-6.04203 6.81037,-9.52677 2.03271,-3.84069 3.8982,-7.747 5.38657,-11.83252 1.39065,-1.00577 2.61408,-2.22285 3.53377,-3.71122 1.70004,-2.74955 2.25425,-6.07695 2.75237,-9.22126 0.8308,0.59373 1.37443,1.92476 1.74484,2.69946 0.11677,0.24377 0.44062,0.0575 0.40429,-0.17039 z m -22.37952,15.06361 c -0.29633,0.27834 -0.59231,0.55739 -0.88829,0.83538 -0.23601,-0.41275 -0.55634,-0.7239 -0.9197,-0.93486 0.60008,0.0593 1.20227,0.0942 1.80799,0.0995 z m -26.656946,-0.79904 c 3.401836,-0.66358 6.916206,-0.9719 10.379426,-1.05586 3.423,-0.0829 6.75428,0.43038 10.10885,1.06115 0.83397,0.15734 1.6577,0.31221 2.47826,0.4438 -0.62724,0.16686 -1.19521,0.58349 -1.5367,1.24565 -1.30069,-1.92123 -4.10316,-1.75048 -5.18654,0.25224 -1.2326,-2.22885 -4.43865,-2.36255 -5.76262,-0.12665 -1.35255,-2.49096 -4.87998,-2.47262 -6.23041,-0.006 -0.54857,-1.12077 -1.679929,-1.74837 -2.984148,-1.7339 -1.308451,0.0148 -2.560814,0.67522 -2.933348,1.91805 -0.751416,-0.62159 -1.6002,-1.03328 -2.528004,-1.18286 1.420636,-0.24624 2.829629,-0.54963 4.195234,-0.81598 z m 35.341276,6.2043 c -0.77858,1.4538 -1.56951,2.91606 -2.42993,4.33282 -0.0166,-0.0251 -0.0395,-0.0483 -0.0692,-0.0684 -1.13136,-0.74578 -2.50578,-1.0534 -3.84881,-0.8629 -0.34925,0.0497 -1.03787,0.10478 -1.30845,0.37924 -0.3108,0.31573 -0.29492,1.06503 -0.25929,1.50142 -0.16016,0.0335 -0.31821,0.0702 -0.47378,0.10901 -0.37888,0.0942 -0.80187,0.17603 -1.00718,0.54433 -0.34431,0.61807 -0.0452,1.81787 -0.007,2.49485 0.01,0.17215 0.26246,0.17392 0.26881,0 0.0173,-0.47802 0.0406,-0.95638 0.0508,-1.4351 0.0166,-0.8068 0.4759,-1.12254 1.20297,-1.26824 1.02976,-0.20673 2.03589,-0.25682 2.95628,0.31997 0.2339,0.1464 0.42087,-0.2039 0.21132,-0.36089 -0.83715,-0.62865 -1.87078,-0.63782 -2.8635,-0.46778 -0.006,-0.59338 0.1143,-0.9966 0.69779,-1.27 0.40288,-0.18945 0.99025,-0.17357 1.43228,-0.16016 0.99448,0.0296 1.87854,0.35207 2.72133,0.8636 0.0282,0.0169 0.0557,0.0265 0.0825,0.031 -0.93416,1.50706 -1.9551,2.95627 -3.13761,4.27813 -4.13455,4.62104 -9.87389,7.68774 -15.99176,8.65047 -13.045376,2.05422 -24.991489,-6.36764 -31.303388,-17.25048 -0.03916,-0.067 -0.07514,-0.13653 -0.113948,-0.20391 0.444148,-0.11747 0.893234,-0.11783 1.322211,0.1016 0.492125,0.25188 0.583848,0.65123 0.886178,1.04952 0.258586,0.34007 0.542925,0.4318 0.947561,0.49424 1.81222,0.2794 3.254022,1.51341 3.042003,3.50555 -0.01341,0.1277 0.116417,0.22295 0.228953,0.22895 1.473552,0.0783 2.688872,1.01494 3.214863,2.38443 0.0755,0.1972 0.385234,0.12206 0.322792,-0.0885 -0.162278,-0.5454 -0.432858,-1.02447 -0.782108,-1.42522 1.423105,-0.77859 2.814814,-1.56105 4.402666,-1.96604 1.781881,-0.45473 3.445581,0.0145 5.079999,0.73943 2.352678,1.04316 4.978398,2.49661 7.550508,1.30704 0.24588,-0.11395 0.0706,-0.53975 -0.18662,-0.44238 -2.26096,0.85725 -4.23686,-0.16793 -6.22124,-1.1744 0.286457,-0.15628 0.670277,-0.34855 1.1243,-0.53622 3.50309,-1.08268 7.56532,-0.36442 10.96187,0.6858 0.64876,0.20037 3.41947,1.05551 2.4264,2.15864 -0.2868,0.31856 -0.97366,0.51118 -1.35995,0.6858 -0.59055,0.2667 -1.19733,0.49848 -1.81117,0.70415 -2.20592,0.73836 -4.44006,0.99977 -6.74334,1.20226 -0.23143,0.0208 -0.22931,0.3355 0,0.35843 1.16134,0.11712 2.34773,0.0713 3.52283,-0.0956 -0.0342,0.0416 -0.0533,0.0949 -0.0363,0.15592 0.25824,0.92252 0.93381,1.78047 1.81046,2.20592 -0.95744,0.0204 -1.9177,0.006 -2.87902,-0.0462 -2.79329,-0.15275 -5.57036,-0.57326 -8.296628,-1.19591 -2.688167,-0.6149 -5.288139,-1.50319 -7.931855,-2.2666 -0.126647,-0.0363 -0.217664,0.16086 -0.09208,0.21837 5.058832,2.32339 10.932583,3.57328 16.482483,3.84633 5.68043,0.27976 11.40178,-0.68968 16.47049,-3.34257 0.26388,-0.13828 0.0318,-0.5281 -0.23248,-0.39758 -3.77296,1.86973 -7.8419,2.85821 -11.99691,3.12138 0.003,-0.13688 -0.0691,-0.27093 -0.23637,-0.30797 -1.20121,-0.26529 -2.21685,-0.8061 -2.75907,-1.97803 -0.0102,-0.0215 -0.0236,-0.0377 -0.0384,-0.0519 1.57656,-0.24836 3.12808,-0.71155 4.56671,-1.29857 0.80962,-0.3302 2.33821,-0.72355 2.71568,-1.60197 0.41275,-0.96202 -0.77399,-1.71309 -1.47144,-2.10643 -1.45979,-0.82339 -3.23391,-1.2827 -4.98122,-1.56281 0.20532,-0.44909 0.56692,-1.29999 1.12148,-2.81234 0,0 8.94221,-0.9271 11.64484,-2.66418 0.17886,-0.0335 0.35842,-0.066 0.53693,-0.1016 2.70863,-0.5334 5.79332,-1.43475 7.58014,-3.69147 0.10371,-0.13088 -0.0557,-0.2988 -0.18592,-0.18556 -4.22134,3.66289 -10.29934,3.95852 -15.63511,4.36492 -5.93795,0.45191 -11.93271,0.32456 -17.815983,-0.63535 -3.338687,-0.54504 -6.497107,-1.54728 -9.731373,-2.49802 -0.0088,-0.003 -0.01658,-0.001 -0.02469,-0.002 l -0.410634,-0.3422 c 2.145595,0.39864 4.400903,0.24554 6.643511,-0.0981 1.279173,0.17604 2.470148,0.69321 3.410302,1.60232 0.108654,0.10513 0.346427,0.0755 0.372179,-0.0984 0.197205,-1.32292 1.472496,-1.94204 2.715332,-1.91629 1.25095,0.0257 2.247896,0.73872 2.607026,1.9371 0.0699,0.23354 0.38241,0.21802 0.45897,0 0.9599,-2.73931 4.74486,-2.78376 5.78096,-0.0688 0.0635,0.16687 0.34467,0.26459 0.43498,0.0568 1.05269,-2.4077 4.41431,-2.40453 5.33859,0.11466 0.0822,0.2233 0.38417,0.23177 0.46319,0 0.76518,-2.23944 3.7398,-2.42853 4.80202,-0.32879 0.0903,0.1785 0.32137,0.1016 0.38311,-0.0504 0.72461,-1.77871 3.05259,-1.82598 3.83646,-0.0765 0.0639,0.14287 0.26846,0.14217 0.36689,0.0476 0.48577,-0.46426 0.9719,-0.92851 1.45768,-1.39242 0.63958,-0.0208 1.28376,-0.0776 1.93675,-0.18662 2.81904,-0.46884 5.63809,-1.42769 8.22042,-2.64477 0.82233,-0.38806 1.62384,-0.82409 2.38478,-1.31621 -1.28623,3.28295 -2.86244,6.45618 -4.52578,9.56098 z M 85.599951,117.7675 c 0.14993,-0.15911 0.302683,-0.31821 0.457905,-0.47625 0.886531,-0.68404 2.997553,-1.81363 6.643864,-1.00542 5.032021,1.11584 8.116,6.49287 8.116,6.49287 l 1.13595,-2.92205 c 0,0 -0.96661,-1.45274 -2.567516,-2.94817 -1.535642,-1.59173 -3.42265,-2.83069 -5.633157,-3.22509 -1.474257,-0.26317 -2.993318,-0.13053 -4.360685,0.4953 -1.634772,0.74859 -2.763661,2.13748 -3.927475,3.45334 -0.08114,0.0917 0.05009,0.22578 0.135114,0.13547 z m 0.6985,36.61974 c 0.118886,0.061 0.23248,0.0395 0.317147,-0.0215 2.519539,1.3783 5.390797,2.13148 8.265935,2.15053 -0.692854,0.1337 -1.400173,0.23284 -2.133246,0.28328 -2.502958,0.17145 -5.002036,-0.10583 -7.444669,-0.65581 -0.0949,-0.0212 -0.12947,0.11112 -0.03986,0.14393 2.443691,0.90064 5.052483,1.21673 7.648222,1.03152 2.003778,-0.14252 4.174065,-0.51611 6.081536,-1.30563 1.882074,-0.50024 3.659714,-1.40476 4.930074,-2.87125 3.68723,-4.25521 3.04835,-11.13826 0.65546,-15.82879 -0.39476,-0.77399 -0.87172,-1.54517 -1.41605,-2.28988 -1.2252,-2.50508 -4.170897,-6.92115 -9.99067,-7.81791 -7.658806,-1.18039 -15.39875,7.57167 -15.88523,13.93543 -1.731081,5.92596 4.367388,10.85426 9.011355,13.2461 z m -4.8387,-18.8528 c 1.867253,-2.05175 4.114447,-3.80329 6.62058,-5.00486 1.503539,-0.72107 3.153834,-1.27388 4.841875,-1.21567 1.643943,0.0561 3.247318,0.63888 4.680656,1.41605 2.191102,1.18816 4.034718,2.98838 5.397848,5.06589 2.69064,4.10069 3.59728,9.47455 1.86479,14.13016 -2.70193,7.26087 -12.206819,6.72254 -18.10738,4.18571 0.0042,-0.0956 -0.0388,-0.19085 -0.152047,-0.25118 -3.958166,-2.09585 -9.101313,-5.86493 -8.951736,-10.8906 0.08326,-2.79153 1.996722,-5.44795 3.805414,-7.4355" />
  </g>
</svg>
